# xmcd CD database file
#
# Track frame offsets:
#	150
#	15786
#	33206
#	53351
#	69435
#	86486
#	102153
#	111219
#
# Disc length: 1699 seconds
#
# Revision: 0
# Processed by: cddbd v1.5.2PL0 Copyright (c) Steve Scherf et al.
# Submitted via: CDex 1.51
#
DISCID=4d06a108
DTITLE=Majik Ninja Entertainment - MNE Sampler Spring 2017
DYEAR=2017
DGENRE=Horrorcore
TTITLE0=Gorilla Voltage - F.T.W.F.E.
TTITLE1=Boondox - Free Soul
TTITLE2=The R.O.C. - Digital Voodoo
TTITLE3=Young Wicked - Too Long In The Dark
TTITLE4=Triple Threat - R.I.P.
TTITLE5=Lex The Hex Master - The Samurai
TTITLE6=AMB - Murderah
TTITLE7=G-Mo Skee - Front Seat
EXTD=YEAR: 2017
EXTT0=
EXTT1=
EXTT2=
EXTT3=
EXTT4=
EXTT5=
EXTT6=
EXTT7=
PLAYORDER=
